# xmcd CD database file
#
# Track frame offsets:
#	150
#	24789
#	43964
#	70139
#	95746
#	115074
#	135636
#	152013
#	175271
#	197732
#	225149
#	246659
#
# Disc length: 3750 seconds
#
# Revision: 0
# Processed by: cddbd v1.5.2PL0 Copyright (c) Steve Scherf et al.
# Submitted via: CDex 1.70beta2
#
DISCID=9c0ea40c
DTITLE=Steve Guyger - Live At The Dinosaur
DYEAR=1997
DGENRE=Blues
TTITLE0=Come Home Baby 
TTITLE1=What Have I Done 
TTITLE2=Walk With Me 
TTITLE3=Why Do You Act Like That 
TTITLE4=Step Back 
TTITLE5=Tonight With A Fool 
TTITLE6=Sharp Harp 
TTITLE7=Shake Your Hips 
TTITLE8=Monkey On A Limb 
TTITLE9=Glad You're Mine 
TTITLE10=Shake The Boogie
TTITLE11=I Wish You Would 
EXTD=YEAR: 1997
EXTT0=
EXTT1=
EXTT2=
EXTT3=
EXTT4=
EXTT5=
EXTT6=
EXTT7=
EXTT8=
EXTT9=
EXTT10=
EXTT11=
PLAYORDER=
